<svg width="240" height="240" viewBox="0 0 240 240" fill="none" xmlns="http://www.w3.org/2000/svg">
<rect width="240" height="240" fill="#C4C4C4"/>
<path d="M149.167 82.5H90.8333C86.231 82.5 82.5 86.231 82.5 90.8333V149.167C82.5 153.769 86.231 157.5 90.8333 157.5H149.167C153.769 157.5 157.5 153.769 157.5 149.167V90.8333C157.5 86.231 153.769 82.5 149.167 82.5Z" stroke="white" stroke-width="2" stroke-linecap="round" stroke-linejoin="round"/>
<path d="M105.417 111.667C108.868 111.667 111.667 108.868 111.667 105.417C111.667 101.965 108.868 99.1667 105.417 99.1667C101.965 99.1667 99.1666 101.965 99.1666 105.417C99.1666 108.868 101.965 111.667 105.417 111.667Z" stroke="white" stroke-width="2" stroke-linecap="round" stroke-linejoin="round"/>
<path d="M157.5 132.5L136.667 111.667L90.8334 157.5" stroke="white" stroke-width="2" stroke-linecap="round" stroke-linejoin="round"/>
</svg>
