<svg xmlns="http://www.w3.org/2000/svg" width="126.596" height="134.845" viewBox="0 0 126.596 134.845"><defs><style>.a{fill:#789174;}.a,.b,.c,.d,.e{fill-rule:evenodd;}.b{fill:#476040;}.c{fill:#d2dac3;}.d{fill:#b1bd9b;}.e{fill:#96a37e;}</style></defs><g transform="translate(-15.661)"><path class="a" d="M78.964,238.043c-20.336-.59-41.225-13.14-53.5-34.41-10.3-17.836-13.349-40.614-4.942-59.7,1.934-4.375,1.4-4.076,6.152-3.546,18.933,2.1,37.821,14.342,49.235,34.112,1.113,1.934,2.128,3.9,3.054,5.868.919-1.971,1.933-3.934,3.053-5.868,11.423-19.785,30.281-32.029,49.229-34.112,4.756-.523,4.225-.836,6.144,3.546,7.652,17.448,6.488,39.92-4.927,59.7C120.182,224.9,99.293,237.453,78.964,238.043Z" transform="translate(-0.002 -103.198)"/><path class="b" d="M78.962,299.772c-20.336-.59-41.225-13.14-53.5-34.41a72.986,72.986,0,0,1-9.72-32.529,71.983,71.983,0,0,0,9.72,39.114c12.274,21.27,33.162,33.82,53.5,34.41,20.329-.59,41.218-13.14,53.5-34.41a71.034,71.034,0,0,0,9.713-38.935,72.077,72.077,0,0,1-9.713,32.35C120.179,286.632,99.29,299.182,78.962,299.772Z" transform="translate(0 -171.512)"/><path class="b" d="M113.309,277.221c-.784-.022-1.568-.06-2.352-.12l-5.98-10.363-12.953-3.472a1.975,1.975,0,1,1,1.023-3.815l9.138,2.449-6.629-11.483L77.37,245.55a1.978,1.978,0,0,1,1.023-3.823l14.364,3.845L86.135,234.1l-18.186-4.875a1.979,1.979,0,0,1,1.023-3.823l14.364,3.853-5.868-10.161a3.416,3.416,0,0,0-2.225-1.71L63.753,214.3a1.975,1.975,0,0,1,1.023-3.815l7.667,2.053c.732.194,1.142-.179.709-.918l-8.877-15.387a1.968,1.968,0,1,1,3.412-1.964l8.877,15.38c.463.784.918.724,1.157-.157l2.053-7.667a1.979,1.979,0,0,1,3.823,1.023L80.125,215.8l6.622,11.482L90.6,212.917a1.978,1.978,0,0,1,3.822,1.023l-4.875,18.187,6.63,11.475,3.845-14.364a1.978,1.978,0,0,1,3.822,1.023l-4.875,18.187,6.63,11.483,2.449-9.138a1.978,1.978,0,0,1,3.822,1.023L108.4,264.768l4.912,8.511,4.912-8.511-3.471-12.953a1.975,1.975,0,1,1,3.815-1.023l2.449,9.138,6.63-11.483-4.875-18.187a1.979,1.979,0,0,1,3.823-1.023l3.852,14.364,6.622-11.475L132.2,213.94a1.975,1.975,0,0,1,3.815-1.023l3.852,14.364,6.629-11.482-3.479-12.953a1.979,1.979,0,0,1,3.823-1.023l2.053,7.667c.224.829.724.9,1.158.157l8.876-15.38a1.971,1.971,0,0,1,3.419,1.964l-8.884,15.387c-.447.769-.156,1.15.709.918l7.667-2.053a1.975,1.975,0,1,1,1.023,3.815l-11.489,3.084a3.459,3.459,0,0,0-2.225,1.71l-5.868,10.161,14.364-3.853a1.978,1.978,0,1,1,1.023,3.823L140.485,234.1l-6.63,11.475,14.364-3.845a1.978,1.978,0,0,1,1.023,3.823l-18.186,4.868L124.434,261.9l9.138-2.449a1.974,1.974,0,1,1,1.016,3.815l-12.954,3.472-5.98,10.363C114.87,277.161,114.086,277.2,113.309,277.221Z" transform="translate(-34.348 -142.376)"/><path class="c" d="M158.665,134.846c-20.695-12.759-34.8-38.233-34.8-67.581,0-27.34,12.258-51.328,30.661-64.789,4.509-3.3,3.777-3.3,8.286,0,18.4,13.468,30.654,37.449,30.654,64.789C193.462,96.613,179.352,122.086,158.665,134.846Z" transform="translate(-79.704 0)"/><path class="d" d="M281.6,67.264c0-27.34-12.259-51.32-30.654-64.789-4.2-3.076-3.852-3.285-7.435-.627q.392.291.851.627c18.4,13.468,30.661,37.449,30.661,64.789,0,27.765-12.632,52.067-31.512,65.409q1.613,1.142,3.292,2.173C267.49,122.086,281.6,96.612,281.6,67.264Z" transform="translate(-167.841 0)"/><path class="e" d="M204.059,190.11c-.672-.411-1.329-.836-1.986-1.269V175.574a3.207,3.207,0,0,0-1.023-2.479l-10.415-10.408a1.98,1.98,0,0,1,2.8-2.8l7.615,7.608c.56.56,1.023.4,1.023-.426V153.05a3.256,3.256,0,0,0-1.023-2.471l-14.984-14.992a1.98,1.98,0,1,1,2.8-2.8l12.184,12.185c.612.612,1.023.485,1.023-.418V129.077L186.068,113.07a1.98,1.98,0,1,1,2.8-2.8l12.184,12.184c.582.582,1.023.329,1.023-.426V108.008a3.315,3.315,0,0,0-1.023-2.479L190.637,95.115a1.98,1.98,0,0,1,2.8-2.8l7.615,7.615c.53.53,1.023.328,1.023-.426V77a1.982,1.982,0,0,1,3.965,0V99.5c0,.754.492.956,1.023.426l7.615-7.615a1.98,1.98,0,0,1,2.8,2.8L207.061,105.53a3.315,3.315,0,0,0-1.023,2.479v14.021c0,.754.44,1.008,1.023.426l12.191-12.184a1.98,1.98,0,1,1,2.8,2.8l-16.014,16.007v15.477c0,.9.411,1.03,1.023.418l12.191-12.185a1.98,1.98,0,1,1,2.8,2.8l-14.991,14.992a3.256,3.256,0,0,0-1.023,2.471V167.07c0,.829.462.986,1.023.426l7.615-7.608a1.98,1.98,0,1,1,2.8,2.8L207.061,173.1a3.234,3.234,0,0,0-1.023,2.479v13.267C205.381,189.274,204.724,189.7,204.059,190.11Z" transform="translate(-125.098 -55.265)"/></g></svg>