<svg width="620" height="719" viewBox="0 0 620 719" fill="none" xmlns="http://www.w3.org/2000/svg">
<path fill-rule="evenodd" clip-rule="evenodd" d="M112 481.202C133.874 469.652 155.747 458.102 177.62 446.552C198.361 492.793 250.433 522.464 300.483 511.522C312.682 508.855 324.775 502.827 330.632 491.191C335.038 482.44 335.203 472.164 333.208 462.734C331.528 454.789 328.4 446.404 323.281 440.009C316.849 431.974 306.962 425.803 298.96 419.499C286.562 409.728 274.052 400.1 261.508 390.519C259.863 389.264 255.284 387.008 254.363 385.076C253.591 383.459 254.363 379.533 254.363 377.762V369.428C272.563 376.068 292.861 379.722 312.205 378.726C344.407 377.067 370.263 353.751 393.229 333.044C397.324 329.352 401.35 325.581 405.28 321.712C406.032 320.971 407.938 318.23 408.988 318.023C410.394 317.745 414.087 320.073 415.379 320.593C419.85 322.389 424.32 324.186 428.791 325.984C439.675 330.359 450.615 333.933 460.443 340.359C502.146 367.632 546.511 400.978 565.468 448.755C576.243 475.911 582.669 504.909 586.592 533.827C587.126 537.77 588.497 542.681 587.813 546.621C586.561 553.843 582.46 561.496 579.985 568.371C576.841 577.107 573.697 585.842 570.553 594.578C570.206 595.542 569.777 597.977 568.971 598.583C567.292 599.844 561.687 599.414 559.67 599.635C548.093 600.908 536.485 602.198 524.852 602.837C514.395 603.412 504.643 600.736 494.671 597.757C489.121 596.099 483.612 594.305 478.13 592.432C476.898 592.01 470.87 590.876 470.166 589.636C469.858 589.092 470.895 586.538 471.038 585.94C471.947 582.135 472.785 578.313 473.578 574.482C479.172 547.434 483.292 519.087 480.93 491.43C478.47 462.617 462.476 439.854 442.326 420.145C434.913 412.894 427.026 406.114 418.771 399.848C417.324 398.749 414.683 395.887 412.853 395.52C411.384 395.225 410.28 396.452 408.815 397.41C404.57 400.183 400.326 402.956 396.082 405.728C394.941 406.472 390.492 408.437 390.08 409.749C389.733 410.855 391.546 414.511 391.849 415.575C393.137 420.077 394.286 424.62 395.324 429.186C402.13 459.1 405.309 491.844 396.947 521.762C389.053 550.016 370.815 575.442 346.35 591.53C321.041 608.173 291.607 612.292 262.229 606.562C209.983 596.367 156.418 565.713 127.963 519.516C120.678 507.688 115.174 494.755 112 481.202Z" fill="#476040"/>
<path fill-rule="evenodd" clip-rule="evenodd" d="M581.934 544.95C579.905 561.035 572.715 576.32 563.814 589.698C562.642 587.372 564.061 585.45 560.811 585.009C558.63 584.711 555.745 586.253 553.593 586.619C545.613 587.977 537.233 586.933 529.26 586.078C531.326 583.837 534.057 582.022 533.028 578.376C532.25 575.622 528.875 574.552 527.557 572.006C529.355 571.227 534.293 575.16 536.024 575.825C535.166 573.664 532.248 569.797 532.875 567.425C533.334 565.681 535.596 566.016 533.713 563.78C532.854 564.548 530.102 568.255 528.603 567.334C530.054 566.024 528.993 565.31 529.632 563.992C530.126 562.975 530.564 562.482 531.249 561.594C533.019 559.298 534.179 556.364 531.927 553.67C531.175 552.768 529.885 552.959 529.18 551.941C528.499 550.959 528.642 549.807 528.456 548.704C528.249 547.466 528.35 546.073 528.008 544.86C527.3 542.356 527.029 542.394 528.237 539.813C526.996 540.878 525.755 541.942 524.514 543.007C523.899 540.394 523.441 537.624 522.167 535.233C521.737 534.424 519.433 532.289 519.535 531.446C519.237 533.902 517.269 531.008 516.467 530.805C513.937 530.167 509.47 532.663 507.542 534.204C502.216 538.459 499.038 546.569 495.675 552.374C491.981 558.753 488.27 565.833 487.298 573.165C487.055 574.99 486.997 578.828 484.934 579.748C483.824 580.244 479.197 578.914 478.052 578.251C475.254 576.63 476.233 574.201 477.318 571.631C478.723 568.306 479.988 565.453 480.636 561.845C481.41 557.53 481.967 553.165 482.638 548.83C484.045 539.742 485.459 530.611 486.182 521.437C486.414 518.503 486.045 515.582 486.156 512.714C486.253 510.213 488.172 507.322 487.108 504.339C486.743 503.317 485.984 503.077 486.035 502.211C486.067 501.674 487.437 502.178 487.62 501.471C487.976 500.094 486.662 498.685 486.326 497.408C485.793 495.392 486.202 493.53 486.509 491.509C487.756 483.297 485.446 474.655 483.242 466.756C480.862 458.222 477.628 450.011 474.309 441.81C471.388 434.591 470.158 426.755 466.719 419.745C463.747 413.69 460.5 407.679 455.143 403.759C452.689 401.963 450.916 399.247 448.58 397.264C447.188 396.081 445.695 394.812 444.021 394.052C442.404 393.319 440.469 393.746 438.995 393.053C436.947 392.091 434.673 389.673 432.484 388.728C430.594 387.912 428.425 387.355 426.656 385.645C424.257 383.325 423.811 381.781 420.443 381.335C418.494 381.079 416.562 381.192 415.18 379.255C409.711 371.587 424.463 360.515 417.633 352.516C414.914 355.259 413.753 359.159 412.44 362.687C410.721 367.307 408.3 371.199 405.578 375.294C400.814 382.461 393.708 389.728 391.661 398.278C388.325 393.611 386.446 390.83 381.411 395.445C380.464 393.355 381.712 389.374 379.829 388.031C376.518 385.669 370.202 391.55 368.396 393.684C361.326 402.04 357.376 412.213 353.495 422.377C351.781 426.867 349.939 432.551 352.123 437.196C354.056 441.305 358.654 443.559 362.572 445.322C368.118 447.817 372.709 447.687 378.602 448.31C381.307 448.595 383.745 449.777 386.323 448.401C388.555 447.21 390.148 444.834 392.088 443.256C392.544 444.739 393.726 446.043 395.232 444.73C397.436 453.991 399.631 463.053 399.099 472.649C398.61 481.455 397.843 490.297 396.272 498.979C394.652 507.933 392.757 517.034 389.23 525.455C385.741 533.788 380.39 541.127 375.517 548.671C374.034 545.644 372.267 547.139 370.122 548.559C369.27 546.748 370.364 545.366 369.181 543.76C368.418 543.312 367.737 542.758 367.137 542.098C366.93 540.809 366.638 539.539 366.265 538.289C364.362 539.066 363.554 539.985 362.685 541.809C359.819 536.761 357.79 537.402 352.454 537.727C345.308 538.161 343.024 544.346 340.659 550.155C340.097 551.539 339.055 553.282 338.933 554.815C338.845 555.897 339.805 557.711 339.675 558.27C339.406 559.42 338.366 558.461 338.085 559.029C337.053 561.113 336.79 564.068 336.241 566.327C334.776 572.372 334.33 582.144 328.378 585.583C323.395 588.462 316.245 589.143 310.658 590.227C301.868 591.932 292.562 592.241 283.63 592.288C275.647 592.332 266.103 593.293 258.525 590.284C257.415 589.844 252.161 587.372 253.385 586.113C253.917 585.567 256.795 586.47 257.384 586.785C256.985 586.573 256.687 584.122 256.486 583.567C255.736 581.502 255.16 581.431 253.735 579.867C250.576 576.399 254.842 577.999 254.554 575.513C254.498 575.034 251.119 576.273 251.212 576.241C251.322 575.485 252.018 573.917 251.66 573.159C251.922 573.715 249.71 569.051 249.973 570.113C249.461 568.052 250.898 566.021 250.601 564.028C250.18 561.204 248.115 561.768 246.498 560.097C245.943 559.523 245.723 558.359 245.178 557.702C244.941 557.416 244.075 557.366 243.987 557.212C243.396 556.185 243.433 556.014 244.054 553.853C242.856 554.378 239.7 556.551 238.48 555.366C237.01 553.939 240.094 552.267 237.543 551.285C236.515 550.889 235.926 551.995 235.009 552.031C234.393 552.055 234.273 550.536 233.504 550.936C232.132 551.65 231.776 554.644 231.171 555.942C227.744 547.197 216.696 561.572 214.656 564.946C212.767 568.069 212.659 574.242 207.995 573.763C205.546 573.511 202.733 570.832 200.78 569.521C197.915 567.597 194.853 565.997 191.892 564.223C178.749 556.348 166.357 547.666 154.719 537.686C150.438 534.015 144.707 529.459 144.137 523.77C143.909 521.492 143.633 519.412 143.001 517.106C141.73 512.467 140.05 513.284 136.341 510.757C137.827 507.823 139.948 507.671 139.819 504.12C139.713 501.236 138.609 498.357 137.64 495.696C136.403 492.302 135.805 488.486 132.18 487.544C128.318 486.54 127.702 488.418 125.146 491.13C125.41 489.669 126.59 485.965 124.952 485.022C122.671 483.711 121.441 488.553 119.65 489.076C118.109 485.634 112.892 480.275 116.543 476.855C118.385 475.129 121.964 474.467 124.247 473.422C127.642 471.869 130.937 470.091 134.233 468.342C148.884 460.571 163.112 452.088 177.644 444.104C180.207 450.039 182.494 456.112 185.447 461.872C187.909 466.677 192.313 471.225 192.135 476.913C191.952 482.832 189.273 488.656 188.632 494.578C188.208 498.498 188.795 500.044 193.109 498.681C193.482 501.383 197.835 505.298 200.157 506.672C203.894 508.883 207.615 504.832 210.221 502.321C212.063 504.072 212.452 506.659 213.973 508.612C214.738 507.791 214.623 505.461 215.109 505.081C215.575 504.716 217.205 505.517 217.541 505.508C218.05 505.493 217.619 504.047 218.03 504.029C219.346 507.272 222.384 501.848 225.305 504.071C224.954 502.369 225.434 501.783 226.894 500.971C227.65 504.495 230.746 502.836 233.419 503.226C238.168 503.916 242.805 506.578 247.473 507.785C257.09 510.273 266.17 511.65 276.074 511.489C280.036 511.425 281.703 512.028 284.039 515.123C284.928 516.3 285.359 517.776 286.901 518.332C289.161 519.147 289.289 517.628 291.122 517.198C292.987 516.76 292.007 516.29 293.763 517.214C294.842 517.782 295.48 519.584 296.363 520.427C298.86 522.813 301.513 523.717 303.6 520.447C303.996 521.643 304.446 522.01 305.384 522.8C305.25 520.915 304.969 517.139 308.082 518.032C310.408 518.697 309.326 522.044 312.628 521.463C314.479 521.138 316.018 518.462 317.126 517.115C318.644 515.268 318.709 517.803 319.008 514.648C319.184 512.777 317.963 510.453 317.222 508.821C319.995 509.392 320.49 512.328 323.246 512.587C326.334 512.877 327.912 508.774 330.904 509.562C330.615 508.872 329.497 506.571 329.988 505.89C330.744 504.843 331.828 507.328 333.008 507.093C334.293 506.836 335.719 503.342 335.449 502.165C334.912 499.819 332.187 500.412 331.15 498.551C330.203 496.851 331.04 493.736 330.995 491.894C330.934 489.384 330.352 486.839 330.787 484.332C331.245 481.696 332.573 479.516 334.387 477.57C335.648 476.218 339.156 474.124 336.082 472.569C341.531 470.556 338.313 464.927 338.738 460.247C339.002 457.338 340.173 455.22 339.525 452.092C338.752 448.35 336.756 444.867 334.691 441.704C332.636 438.552 330.518 435.626 327.461 433.397C326.632 432.837 325.801 432.277 324.971 431.718C324.399 430.915 323.68 430.682 322.811 431.019C321.406 429.95 321.149 429.08 320.11 427.548C317.499 423.698 312.87 421.797 309.03 419.51C305.341 417.313 302.133 414.292 298.266 412.405C298.286 412.414 294.206 410.654 294.549 411.112C293.143 409.232 294.575 406.905 294.503 404.878C294.428 402.797 293.18 401.88 292.598 400.085C291.904 397.95 293.151 395.299 291.895 393.389C291.404 392.645 290.445 392.437 289.849 391.781C288.834 390.665 288.383 389.162 287.307 388.063C286.251 389.309 285.196 390.555 284.141 391.801C282.895 388.771 282.648 387.983 280.094 390.862C276.196 395.256 273.986 393.36 270.809 389.277C269.759 387.928 268.537 387.662 267.751 386.67C266.5 385.093 267.845 382.331 266.059 380.955C265.018 380.152 263.563 380.964 262.686 379.583C261.608 377.886 263.368 375.364 262.375 373.462C277.304 378.189 292.538 381.957 308.315 380.808C323.641 379.693 339.292 375.934 353.357 369.708C377.761 358.904 401.562 341.134 411.154 315.362C413.557 318.183 413.056 323.329 415.708 325.918C419.649 329.766 419.294 322.074 419.294 319.625C422.453 320.471 426.961 321.811 427.217 325.661C427.477 329.551 423.979 333.604 422.749 337.142C421.513 340.698 420.897 344.812 421.198 348.568C421.347 350.445 421.695 352.39 422.633 354.049C423.78 356.077 425.054 355.976 426.592 356.902C426.339 356.751 428.517 358.223 428.453 358.207C433.037 359.308 436.717 362.753 441.643 361.506C444.815 360.703 447.881 358.381 449.052 363.024C451.257 361.541 451.53 360.394 451.469 358.207C451.442 357.26 450.098 356.451 451.445 356.151C451.893 356.052 453.564 358.082 454.218 358.27C456.026 358.787 456.722 358.06 457.594 356.701C458.096 355.916 458.13 350.619 458.732 350.508C460.009 350.271 462.677 355.724 463.388 356.701C463.388 341.064 479.695 359.187 484.77 362.641C488.899 365.451 493.384 367.941 496.846 371.609C501.256 376.281 499.98 378.996 497.003 384.046C493.708 389.636 491.326 396.149 488.327 401.978C486.822 404.903 485.019 408.414 485.061 411.814C485.076 412.96 485.736 414.144 485.675 415.257C485.585 416.867 484.805 417.55 484.158 418.96C482.294 423.018 483.965 427.865 487.903 429.875C490.427 431.163 493.022 431.977 495.461 433.466C498.038 435.038 500.585 436.735 503.723 436.843C505.751 436.912 506.871 436.369 508.829 436.977C510.157 437.389 511.266 438.585 512.805 438.434C515.881 438.131 518.138 434.735 521.298 434.036C523.637 433.519 526.673 433.819 528.165 431.524C530.014 428.676 526.493 425.839 529.302 423.217C530.076 424.663 530.59 426.312 530.774 427.941C531.605 425.753 531.938 423.995 533.162 422.034C534.44 419.985 535.166 418.651 535.144 416.065C535.104 411.426 532.86 407.101 531.737 402.687C535.666 402.904 538.903 409.675 540.617 412.514C543.777 417.753 547.047 422.923 550.191 428.172C554.138 434.76 559.152 442.004 561.688 449.28C563.977 455.846 558.437 460.069 555.386 465.407C551.776 471.723 550.683 477.77 548.712 484.543C547.135 489.961 546.956 495.979 551.379 500.089C553.353 501.924 555.863 502.99 558.321 503.987C561.253 505.178 562.026 507.357 565.173 507.984C567.682 508.484 570.463 508.731 573.031 508.651C577.428 508.514 575.83 507.063 578.267 504.288C577.505 506.894 580.081 509.368 580.795 511.757C581.797 515.103 582.027 518.797 582.438 522.255C583.343 529.837 582.887 537.398 581.934 544.95ZM523.082 614.391C519.131 613.496 513.246 614.034 509.694 612.07C507.232 610.708 508.348 609.395 509.368 606.823C512.135 599.849 519.843 599.074 526.666 600.973C525.471 605.446 524.277 609.919 523.082 614.391ZM530.192 666.761C542.719 673.548 556.385 680.823 566.464 691.019C568.832 693.415 575.235 698.739 574.381 702.659C573.49 706.753 565.442 705.959 562.467 705.851C548.068 705.324 534.582 701.713 521.681 695.385C509.346 689.333 497.455 683.141 488.48 672.458C484.843 668.131 478.185 661.454 478.939 655.277C479.69 649.144 485.986 644.497 489.325 639.686C492.598 634.968 496.66 624.649 502.772 623.087C505.437 622.406 508.114 623.909 510.599 624.665C512.971 625.386 516.562 625.381 518.591 626.97C522.266 629.848 520.795 636.485 516.935 638.34C514.366 639.575 511.377 640.108 508.681 641.003C505.652 642.009 490.358 646.619 496.054 651.838C500.019 655.471 507.077 651.035 511.325 650.023C513.507 649.505 517.012 648.833 518.309 651.322C519.57 653.746 517.282 656.266 515.291 657.393C512.334 659.067 508.551 658.807 505.985 661.269C503.891 663.278 503.349 665.666 506.223 666.878C513.861 670.102 522.221 662.442 530.192 666.761ZM373.027 550.651C372.586 548.938 373.712 547.967 375.493 548.716C375.101 549.833 374.28 550.478 373.027 550.651ZM248.813 587.724C247.201 587.506 247.852 585.473 248.514 584.463C249.583 585.296 249.682 586.383 248.813 587.724ZM136.654 517.193C134.605 514.909 137.699 510.954 140.776 512.804C139.773 514.311 137.756 515.44 136.654 517.193ZM129.225 421.569C125.91 415.666 125.676 402.844 117.061 402.063C113.894 401.776 108.258 405.746 105.539 403.87C103.074 402.17 105.223 393.606 101.634 393.735C96.5763 393.916 99.1733 403.828 96.8907 406.285C95.5842 407.689 92.6362 408.253 90.8132 408.009C88.042 407.64 87.8034 406.386 87.7332 403.787C87.6799 401.863 89.0743 394.16 84.7487 395.439C81.5986 396.37 82.3594 403.135 82.0478 405.536C80.8901 414.47 67.8946 414.052 61.0852 414.81C56.9533 415.268 37.5873 418.356 41.8904 409.815C43.7097 406.203 48.172 403.199 51.2089 400.684C56.3777 396.403 62.2831 393.029 68.4449 390.407C79.9046 385.532 92.8169 382.938 105.243 384.639C119.234 386.552 130.754 393.456 140.094 403.87C142.024 406.023 147.474 410.999 145.387 414.065C144.227 415.771 140.211 416.194 138.414 416.828C135.159 417.979 131.986 419.466 129.225 421.569ZM149.819 425.881C154.573 424.082 155.652 430.012 157.483 433.217C159.05 435.962 162.525 440.129 160.701 443.352C159.044 446.285 153.974 448.032 151.121 449.269C147.386 450.889 143.481 452.093 139.754 453.726C137.801 449.074 136.108 444.304 134.048 439.701C132.885 437.105 130.502 433.533 132.547 430.938C135.933 426.644 145.098 427.668 149.819 425.881ZM281.678 250.318C282.045 244.988 285.536 246.734 286.883 250.401C288.347 254.384 288.513 259.118 288.63 263.318C288.717 266.521 288.06 271.529 285.002 266.861C282.064 262.377 281.319 255.515 281.678 250.318ZM300.468 271.806C299.941 278.259 296.262 273.796 294.915 270.355C292.95 265.334 291.448 258.844 292.166 253.435C292.995 247.193 296.041 251.112 297.4 254.93C299.321 260.331 299.404 266.216 300.468 271.806ZM308.456 266.542C304.313 267.665 297.853 243.226 303.449 242.391C308.1 241.699 312.54 265.436 308.456 266.542ZM325.044 269.09C325.006 274.513 320.535 270.237 318.971 268.048C316.105 264.039 313.847 258.054 313.684 253.13C313.532 248.508 315.556 244.753 318.792 249.731C322.387 255.261 323.88 262.709 325.044 269.09ZM288.849 206.482C292.884 195.155 297.92 184.742 304.648 174.773C305.855 172.984 307.066 170.946 308.71 169.522C310.04 168.369 311.959 168.08 313.211 166.956C315.732 164.696 313.805 162.429 311.352 161.245C307.23 159.254 299.896 159.543 302.773 152.928C306.75 143.789 317.057 148.883 321.114 155.095C322.756 151.216 325.641 152.162 329.159 151.897C334.418 151.499 339.364 148.978 344.675 149.067C349.6 149.15 354.134 151.546 359.07 151.633C364.566 151.732 369.157 151.96 374.503 153.5C371.718 159.145 368.26 164.726 362.959 168.323C363.913 166.56 367.218 161.824 364.254 160.516C362.249 159.632 357.967 163.336 356.263 164.191C356.195 162.577 355.604 160.949 354.639 159.657C349.432 163.3 351.186 169.554 355.629 172.98C351.744 175.007 347.682 176.786 343.321 177.444C339.018 178.095 334.692 177.081 330.412 177.809C322.901 179.086 317.29 185.82 316.094 193.21C315.445 197.22 317.633 207.309 320.891 199.487C321.542 197.925 321.876 196.083 322.908 194.71C324.609 192.446 325.915 193.244 328.408 193.786C330.476 194.236 334.099 194.688 334.883 196.978C335.586 199.033 333.751 201.795 332.712 203.359C329.15 208.727 323.826 213.367 317.392 214.583C313.749 215.271 285.978 214.548 288.849 206.482ZM297.516 132.974C295.181 131.408 296.934 127.326 297.211 125.239C297.625 126.003 298.039 126.766 298.453 127.531C298.163 122.639 298.831 118.687 299.873 113.939C300.269 112.136 300.126 110.603 300.207 108.797C300.254 107.763 300.061 107.03 300.488 106.409C301.035 105.611 301.69 107.932 301.66 107.728C304.151 104.723 302.129 104.086 302.857 101.062C302.866 101.024 305.149 98.5821 305.401 98.1218C306.604 95.9249 306.846 95.0782 308.925 93.803C311.033 92.5101 310.323 93.789 311.468 91.0239C312.57 88.361 312.499 86.5223 313.137 83.7338C314.122 84.453 315.116 84.4736 316.121 83.7976C315.19 83.5397 314.692 82.9293 314.629 81.9636C317.198 81.701 319.473 79.2079 321.81 80.0677C321.22 79.0579 320.815 73.2727 322.735 73.2839C322.798 74.1906 322.798 75.0964 322.736 76.0021C324.357 73.5549 326.9 69.9347 328.899 68.0857C330.408 66.6895 329.982 67.0974 331.827 66.9005C333.414 66.7317 333.436 67.329 334.798 65.9029C334.262 64.4327 334.664 63.4997 336.004 63.1069C336.417 62.9268 336.831 62.7468 337.243 62.5658C339.144 61.4107 339.847 60.1036 341.343 58.5734C342.506 57.3817 344.968 56.8735 345.843 55.6836C346.785 54.4047 346.088 51.5534 347.341 50.582C348.713 49.5168 348.803 50.9045 350.14 50.7779C350.332 50.7601 352.265 49.7278 352.659 49.5956C355.516 48.6298 358.159 48.2416 360.574 46.041C361.384 45.3022 361.957 43.8873 362.739 43.3163C364.035 42.3702 365.584 42.5558 366.906 41.7232C367.326 41.4588 367.961 40.2802 368.457 39.8461C369.918 38.5653 371.921 37.9296 373.731 37.3661C377.479 36.1996 381.009 35.0417 384.634 33.4721C392.419 30.0994 401.004 27.2415 409.264 25.294C410.215 25.07 412.66 25.2003 413.367 24.7399C413.89 24.3986 414.344 23.2388 414.473 23.1647C416.018 22.2655 418.505 21.2566 420.624 20.6528C426.842 18.8788 427.06 22.2664 423.096 25.8547C419.578 29.0399 415.329 31.263 411.715 34.3075C405.825 39.2723 401.999 46.5952 398.112 53.107C403.331 55.6396 410.812 53.0742 416.112 51.9744C418.806 51.4165 421.665 51.3574 424.319 51.3583L425.171 50.8708C425.851 50.4113 426.292 50.5989 426.496 51.4343C426.594 52.506 427.116 52.6776 428.063 51.9481C428.565 51.6021 429.088 51.2946 429.634 51.0255C430.606 50.4713 432.097 48.6945 433.344 48.9139C435.181 49.2374 434.078 50.1366 435.264 50.5923C437.991 51.6377 439.314 49.1493 441.858 48.7508C442.732 48.6139 443.973 49.2909 444.933 49.1868C445.725 48.8971 446.46 48.5032 447.135 48.0063C447.815 47.9904 448.29 48.3167 448.564 48.9824C450.637 48.9964 454.463 48.5014 454.647 45.8769C456.107 48.6401 456.947 47.6997 459.23 46.4151C459.23 49.724 466.378 46.9036 468.337 46.8971C473.377 46.8811 477.732 44.8887 482.512 47.4568C474.061 51.2393 464.488 52.9167 456.304 57.2101C452.605 59.1519 447.84 64.6427 450.586 69.1021C452.216 71.749 455.244 71.599 457.92 71.2821C461.32 70.8798 464.146 72.1559 467.625 72.0144C474.681 71.7284 483.354 77.0944 489.444 71.3608C492.106 74.9867 495.248 74.9726 499.241 75.1948C501.095 75.2979 512.66 77.311 512.184 79.5529C511.918 80.814 506.388 82.7952 505.555 83.1656C502.42 84.5561 499.176 85.6475 495.853 86.4886C489.86 88.0085 483.962 87.9147 477.917 88.8533C473.521 89.5359 468.08 92.0431 469.282 97.6201C470.34 102.531 476.158 101.424 479.929 101.081C484.052 100.706 488.019 100.232 492.166 100.415C495.495 100.562 502.378 100.354 504.474 103.632C495.237 110.288 483.653 112.014 472.642 113.397C459.91 114.994 447.277 117.013 434.819 120.137C435.757 118.256 439.888 111.41 438.258 109.367C436.262 106.863 430.27 116.96 428.731 118.317C415.624 129.88 397.678 137.725 381.616 144.138C386.905 137.592 394.874 133.124 401.335 127.817C405.782 124.164 413.871 118.199 410.928 111.418C394.397 121.735 380.491 140.32 359.636 141.537C367.087 136.106 375.672 131.93 381.8 124.842C383.234 123.186 387.961 116.855 385.029 114.579C382.721 112.788 378.64 119.098 377.031 120.465C365.712 130.076 350.162 138.214 336.063 142.719C330.996 144.338 324.034 147.09 319.38 143.556C313.137 138.814 308.273 138.661 301.231 142.445C300.53 139.36 300.438 134.937 297.516 132.974ZM446.481 351.118V355.033C444.363 354.824 445.312 352.588 444.04 351.561C444.854 351.414 445.667 351.265 446.481 351.118ZM443.817 346.584C444.462 348.866 444.462 348.866 441.758 348.608C442.699 347.683 443.201 347.189 443.817 346.584ZM454.029 349.78C455.574 348.931 454.257 354.021 451.804 351.387C452.546 350.851 453.288 350.316 454.029 349.78ZM459.494 342.427C459.205 344.108 458.918 345.788 458.63 347.467C457.728 346.721 456.826 345.974 455.924 345.227C457.115 344.294 458.304 343.361 459.494 342.427ZM576.86 498.519C578.799 497.347 579.191 501.83 579.399 502.682C578.124 501.979 573.81 500.362 576.86 498.519ZM192.368 157.711C189.008 162.35 185.656 167.026 182.893 172.053C181.358 174.846 180.237 178.928 177.448 180.796C174.965 182.458 170.875 182.712 168.089 183.408C162.499 184.801 156.955 186.389 151.519 188.3C132.965 194.827 115.349 205.931 102.308 220.789C96.025 227.947 90.7785 236.193 87.8268 245.299C84.4427 255.737 85.5844 266.68 84.3435 277.424C84.0459 280.005 83.504 289.209 80.4587 290.373C76.7105 291.806 75.6492 282.735 75.1972 280.361C74.63 277.381 73.0568 256.99 67.1805 258.876C63.597 260.025 63.5746 271.917 63.3556 274.753C62.8568 281.192 62.123 287.583 60.8989 293.932C59.9434 298.879 58.6753 303.786 57.4895 308.683C56.4479 312.987 55.3174 318.152 52.0633 321.394C49.6722 308.282 49.2829 293.55 53.7648 280.84C54.9908 277.362 62.6949 259.524 55.8817 257.797C51.8135 256.764 48.5866 266.483 47.4851 269.05C43.7949 277.646 40.8656 286.56 37.6799 295.35C35.5882 301.121 33.4685 311.529 28.3418 315.54C26.4738 301.051 30.426 286.607 35.2345 273.076C36.0936 270.66 46.7738 246.575 37.5246 249.185C32.4755 250.61 28.9426 261.389 26.8668 265.553C21.7813 275.753 15.5316 286.358 7.02447 294.07C6.62392 285.996 11.7853 277.448 13.7038 269.692C15.9096 260.778 18.8211 252.487 23.5361 244.562C32.2659 229.89 43.6658 216.012 54.9243 203.221C66.5478 190.016 79.7989 178.258 94.2413 168.222C108.74 158.147 123.985 151.755 141.142 147.829C160.351 143.435 181.196 140.837 200.43 146.501C197.743 150.238 195.068 153.984 192.368 157.711ZM510.1 176.889C509.79 176.951 509.481 177.013 509.172 177.075C508.918 175.57 508.664 174.065 508.41 172.56C510.328 173.686 508.7 175.612 510.1 176.889ZM429.69 163.888C452.404 153.876 476.345 146.484 500.569 141.163C517.034 137.545 535.703 135.765 551.748 142.107C570.273 149.428 577.953 169.062 578.766 187.831C579.715 209.707 572.282 230.454 561.57 249.208C558.998 253.711 545.251 280.927 539.474 277.897C541.425 272.564 555.088 242.495 546.039 239.834C540.832 238.303 536.797 253.101 535.004 256.431C533.789 258.688 525.489 274.492 522.719 273.139C525.334 264.713 528.525 256.021 528.274 247.059C528.085 240.29 524.553 237.104 520.823 244.116C512.681 259.424 504.115 275.127 492.266 287.926C491.148 278.435 496.227 267.956 499.315 259.198C501.739 252.323 504.983 245.473 505.757 238.146C506.175 234.177 506.053 226.334 500.131 227.711C494.975 228.909 490.815 234.813 486.736 237.869C489.821 232.047 492.793 226.149 496.331 220.584C499.363 215.814 502.996 211.464 506.005 206.682C507.345 204.552 508.09 202.483 508.94 200.235C509.777 198.016 511.038 196.783 512.465 194.764C513.526 193.262 514.107 191.989 514.428 190.335C514.548 189.718 514.122 188.797 514.188 188.099C514.304 186.872 515.589 186.546 515.161 185.138C517.417 188.268 516.793 182.115 516.751 180.974C516.602 176.96 518.222 172.614 516.218 168.881C511.996 161.012 499.613 162.539 492.292 163.105C481.805 163.916 468.681 166.304 459.7 171.983C457.403 173.434 455.961 172.605 453.469 173.72C451.191 174.74 448.873 175.798 446.535 176.792C440.459 179.372 434.658 182.572 428.666 185.337C428.984 180.846 430.002 176.466 429.294 171.979C428.992 170.056 427.081 165.038 429.69 163.888ZM589.445 512.247C587.457 498.95 585.208 485.796 581.662 472.816C579.967 466.615 578.629 460.289 576.852 454.116C575.441 449.211 571.125 446.724 568.993 442.155C563.976 431.408 559.377 420.763 553.332 410.477C547.014 399.73 539.472 390.26 530.504 381.618C512.314 364.089 491.302 350.697 470.963 335.946C460.521 328.373 449.697 321.777 438.043 316.228C433.347 313.991 428.834 312.205 423.865 310.749C418.716 309.242 416.145 307.48 414.239 302.307C410.326 291.684 402.986 288.206 392.961 284.169C388.427 282.343 384.302 279.813 379.834 277.871C375.187 275.853 370.272 274.306 365.949 271.608C346.284 259.339 372.539 233.8 382.98 224.605C387.05 221.022 391.653 217.345 396.835 215.566C402.204 213.722 409.523 212.638 415.207 212.132C419.065 211.79 424.528 213.589 427.733 210.523C430.317 208.053 429.318 204.097 429.001 200.972C428.111 192.207 435.308 191.521 442.555 189.972C453.877 187.552 464.462 182.462 475.801 179.917C483.037 178.292 503.129 173.43 503.247 185.643C503.336 194.902 496.411 204.215 492.058 211.782C488.654 217.699 485.023 223.418 481.424 229.209C478.731 233.54 476.293 238.292 476.334 243.525C476.367 247.66 478.027 251.743 482.878 251.132C488.331 250.445 492.415 245.046 496.943 242.433C497.129 248.088 492.85 254.414 491.208 259.739C489.27 266.019 487.567 272.548 486.473 279.032C485.775 283.17 483.854 299.105 492.229 297.061C497.874 295.683 502.738 288.405 506.026 284.107C509.489 279.579 512.595 274.814 515.732 270.058C517.69 275.878 505.51 287.136 511.691 292.38C518.288 297.978 529.712 278.16 532.925 274.5C533.484 278.946 527.209 288.794 534.307 290.833C539.33 292.277 546.179 285.43 549.342 282.207C555.124 276.318 555.83 268.003 559.436 260.874C563.566 252.713 568.861 245.275 572.687 236.925C584.742 210.614 590.872 171.634 571.862 146.815C559.028 130.058 536.766 127.157 517.08 128.707C494.677 130.471 472.765 137.291 451.807 145.109C437.735 150.359 423.891 156.237 410.126 162.243C399.969 166.675 389.86 171.221 379.783 175.835C374.907 178.066 370.157 180.481 365.414 182.978C361.501 185.039 356.85 187.435 352.293 186.26C355.572 181.278 362.093 179.627 366.805 176.437C372.38 172.662 375.467 166.212 377.508 159.971C379.707 153.249 381.654 151.644 388.407 149.888C395.156 148.134 401.473 145.305 407.504 141.807C421.647 133.603 437.276 128.913 453.35 126.369C467.572 124.119 482.61 123.105 495.89 117.085C505.775 112.604 518.216 102.688 506.181 92.7257C514.698 86.5289 529.803 76.1793 516.578 66.0435C506.328 58.1871 490.844 58.7956 478.622 58.7956C480.38 55.2448 486.009 54.024 489.173 52.0934C493.076 49.7119 497.895 47.1343 499.25 42.4396C501.469 34.7632 493.09 32.5251 487.247 31.7553C465.035 28.8299 440.074 31.0286 419.034 38.7603C420.132 34.8888 425.602 32.0366 428.665 29.9597C432.746 27.1928 436.783 24.1661 439.762 20.169C441.333 18.0602 442.505 15.7808 442.817 13.1461C443.153 10.306 442.85 11.5062 441.995 10.7533C438.842 7.97224 434.404 6.22168 430.121 6.03509C417.778 5.49595 406.81 11.3046 395.099 14.1559C389.921 15.4161 385.089 15.9337 380.131 18.1699C374.152 20.8665 367.992 23.2228 362.078 26.0423C359.33 27.3531 356.744 28.9189 353.97 30.1641C351.454 31.293 350.871 32.7098 348.841 34.4266C346.979 36.0018 344.913 35.2226 342.802 36.4012C339.882 38.0299 337.1 40.8709 334.387 42.8971C323.824 50.7873 313.847 59.8467 305.471 70.0603C291.012 87.6916 276.647 115.008 286.513 138.116C288.818 143.511 294.255 145.246 295.606 151.134C296.789 156.293 296.977 161.416 298.498 166.509C300.04 171.67 293.86 176.51 291.222 180.711C287.095 187.284 285.297 194.721 282.973 202.039C282.25 200.07 282.003 196.75 279.976 195.59C277.521 194.187 277.489 197.116 275.724 195.796C273.649 194.244 271.966 188.185 270.76 185.772C269.152 182.553 267.498 179.353 265.646 176.267C258.088 163.662 246.442 153.923 233.803 146.652C207.993 131.804 176.915 130.214 148.16 135.608C119.281 141.025 94.2038 155.406 71.8711 174.151C59.5026 184.531 48.5931 196.032 38.7758 208.859C29.1326 221.459 19.1702 233.731 12.0772 248.015C8.09417 256.036 4.48732 264.349 2.25901 273.047C0.529513 279.797 -1.15131 287.993 1.04892 294.839C2.9319 300.698 8.374 303.845 13.8666 300.037C18.6854 296.695 20.8361 290.659 24.1266 286.034C24.7873 293.697 15.467 321.906 29.0474 323.234C39.0753 324.216 42.7523 301.123 44.8768 294.435C46.3002 303.435 43.6124 313.157 46.9919 321.849C48.6306 326.067 53.7498 333.702 58.0838 327.643C60.0239 324.93 60.1671 321.062 60.8615 317.905C61.7347 313.927 62.8296 309.999 63.6953 306.018C65.8768 295.985 67.0925 285.797 68.778 275.675C71.6128 282.25 71.0784 294.225 78.1059 298.298C85.2325 302.428 88.437 290.618 89.2502 285.838C90.6166 277.801 89.9634 269.568 91.1407 261.501C92.3349 253.328 95.2426 245.959 99.6431 238.99C115.3 214.199 144.662 195.47 174.207 194.233C172.614 200.363 163.519 216.159 175.395 216.419C178.072 216.478 180.526 215.998 183.24 216.29C186.578 216.648 190.549 218.359 193.885 218.118C195.909 217.971 195.831 217.126 197.906 218.337C200.08 219.606 200.366 221.486 202.744 218.525C204.535 221.854 208.712 222.741 211.872 224.194C211.909 223.334 211.947 222.474 211.984 221.613C213.943 224.403 216.067 224.904 219.069 226.269C220.991 227.142 222.345 226.873 224.077 227.324C226.173 227.869 227.222 229.028 229.11 230.101C231.158 231.265 234.748 231.122 236.32 232.947C239.101 236.174 234.802 241.623 233.252 244.381C228.895 252.135 226.022 261.12 224.134 269.774C223.652 271.981 223.191 273.541 223.546 275.731C223.855 277.636 224.424 276.26 224.073 278.137C223.949 278.801 222.714 280.198 222.494 280.676C220.627 284.73 220.904 290.105 220.806 294.478C220.57 304.931 221.896 314.816 224.742 324.867C225.991 329.275 227.092 333.871 228.667 338.172C230.131 342.168 232.347 344.609 231.567 348.929C229.895 358.194 239.583 360.706 244.871 366.51C247.266 369.14 247.693 372.498 248.233 375.885C249.007 380.768 250.616 385.255 252.602 389.781C256.08 397.71 260.848 408.063 267.387 413.918C270.329 416.551 273.029 419.465 276.373 421.43C277.937 422.349 279.892 424.597 281.635 425.03C283.285 425.439 282.695 423.683 284.487 425.135C285.859 426.246 285.785 427.901 287.691 429.161C289.519 430.37 291.488 431.38 293.412 432.424C297.322 434.545 301.545 436.552 305.105 439.232C308.551 441.829 311.983 444.564 315.446 447.184C318.633 449.597 320.871 452.598 321.901 456.507C326.426 473.678 310.562 488.189 297.031 495.369C279.519 504.662 259.67 502.7 241.657 495.937C222.984 488.926 204.546 476.062 193.422 459.286C190.658 455.117 187.855 450.651 185.758 446.1C184.379 443.107 183.983 439.426 182.128 436.678C177.967 430.516 169.031 439.35 164.704 441.663C158.334 414.738 146.102 384.339 117.663 374.702C90.7065 365.567 56.9299 376.42 39.415 398.652C35.2869 403.892 29.3787 412.383 32.1592 419.399C34.5784 425.502 42.5408 426.882 48.2824 427.494C56.4676 428.368 65.0823 427.318 72.982 425.096C75.0109 424.525 78.4868 422.898 80.6393 423.526C83.9832 424.503 83.8568 429.371 85.5451 431.906C87.2531 434.472 89.7313 434.202 90.3087 430.91C90.859 427.766 87.969 424.811 90.4145 422.019C91.7752 420.465 96.3685 419.181 98.2805 420.391C99.8799 421.404 100.023 424.583 101.294 426.045C104.798 430.077 105.179 423.542 105.897 420.785C106.975 416.64 111.686 413.416 116.259 415.271C119.12 416.432 119.836 420.83 120.577 423.488C122.091 428.917 123.134 434.159 125.184 439.449C126.749 443.485 133.38 454.726 130.2 458.663C128.236 461.095 123.277 462.457 120.426 463.395C116.453 464.703 111.687 465.485 108.041 467.542C106.326 468.51 102.544 471.149 102.015 473.149C101.118 476.538 105.237 476.69 107.153 474.971C113.149 492.772 120.229 510.281 131.241 525.626C142.291 541.023 156.638 553.79 171.759 565.06C201.331 587.104 236.116 601.789 272.956 605.287C291.799 607.076 311.282 605.502 329.117 598.961C331.129 598.224 333.17 597.367 335.297 597.02C337.224 596.706 339.201 597.372 341.066 597.063C343.486 596.661 342.837 595.727 344.374 594.432C345.794 593.237 348.01 592.824 349.582 591.792C357.414 586.651 364.518 579.422 370.641 572.382C382.144 559.157 393.544 542.67 398.962 525.861C404.407 508.973 404.666 491.03 406.304 473.52C407.318 462.69 404.058 452.628 402.28 442.043C400.46 431.203 398.333 420.544 395.829 409.857C394.838 405.631 394.83 402.573 398.143 399.496C400.724 397.102 403.949 395.217 407.381 396.849C410.974 398.559 414.23 402.29 417.512 404.607C420.895 406.997 422.48 410.185 425.849 406.205C425.849 409.66 427.513 410.699 430.42 411.835C434.32 413.359 437.961 414.99 441.489 417.308C449.119 422.323 454.884 429.911 459.19 437.879C463.781 446.375 469.066 455.07 472.255 464.207C475.731 474.166 476.167 485.394 476.517 495.855C476.885 506.789 476.993 517.802 476.369 528.728C475.781 539.062 475.203 550.669 472.159 560.598C468.802 571.548 457.931 583.957 472.635 591.261C482.948 596.384 495.446 595.148 505.593 600.42C504.283 602.517 503.404 604.889 501.979 606.915C500.183 609.47 498.585 609.447 495.812 610.471C490.731 612.347 493.191 615.401 492.668 619.423C492.205 622.993 487.432 627.062 485.155 629.685C481.726 633.634 478.181 637.547 475.416 642.01C469.42 651.683 469.422 662.223 474.915 672.109C479.744 680.799 486.641 690.681 495.123 696.075C504.382 701.963 515.295 707.047 525.457 711.135C534.595 714.811 544.262 717.162 554.035 718.347C561.361 719.235 571.442 720.096 577.305 714.577C582.68 709.518 583.954 701.472 581.435 694.749C575.528 678.988 557.486 669.503 544.366 660.578C548.524 659.125 554.002 658.634 557.232 655.323C561.269 651.185 557.539 647.634 552.903 647.681C548.882 647.723 544.782 649.033 540.958 650.196C537.56 651.227 531.319 654.116 527.876 652.035C523.326 649.284 528.305 646.511 530.76 645.268C535.371 642.935 535.116 639.968 530.653 637.538C523.445 633.612 533.775 633.441 534.853 629.902C536.217 625.428 530.54 621.122 530.936 616.24C531.313 611.579 532.752 603.395 536.387 600.061C538.897 597.761 543.192 597.965 546.341 597.455C551.436 596.63 556.423 595.112 561.334 593.547C562.83 602.333 569.816 594.435 572.572 590.927C577.765 584.32 579.913 576.324 582.653 568.519C585.737 559.728 588.361 551.097 589.994 541.905C591.774 531.884 590.94 522.244 589.445 512.247Z" fill="black"/>
<path fill-rule="evenodd" clip-rule="evenodd" d="M244.786 617.55C243.358 619.161 236.52 616.932 234.643 616.698C229.071 616.002 223.848 616.18 218.334 614.788C214.111 613.721 207.922 611.367 203.807 611.996C203.462 612.049 203.865 613.198 203.277 613.191C202.512 613.18 202.103 612.619 201.338 612.324C199.525 611.626 198.094 610.055 196.189 611.426C195.287 607.168 193.733 610.899 191.594 610.868C189.339 610.834 190.164 608.148 187.8 607.801C185.923 607.526 185.139 608.692 183.063 607.889C180.187 606.78 178.148 605.165 174.99 604.393C171.419 603.521 169.059 602.27 165.773 600.811C162.9 599.538 159.715 599.133 156.801 597.934C149.263 594.83 141.88 590.989 134.72 587.103C121.098 579.714 107.649 572.761 95.4063 563.124C90.9253 559.598 87.765 555.688 84.214 551.297C81.8034 548.314 77.6551 542.591 73.1488 543.54C74.2032 540.619 71.3915 538.082 69.5408 536.279C66.6824 533.496 64.2437 530.556 61.8789 527.321C59.6533 524.278 58.0905 521.205 56.7099 517.727C55.663 515.09 54.9872 512.455 52.1158 515.093C46.3962 520.349 53.7394 530.719 56.9118 535.337C62.1593 542.974 67.3816 550.737 73.6274 557.599C85.274 570.397 98.547 582.048 113.483 590.806C121.201 595.332 129.332 599.333 137.705 602.487C145.185 605.304 152.572 606.784 160.248 608.798C164.821 609.999 169.172 611.587 173.839 612.424C175.654 612.749 177.439 613.189 179.284 613.283C179.762 613.308 180.551 612.679 180.855 612.706C181.589 612.773 182.15 613.446 183.223 613.681C184.503 613.962 185.771 613.841 186.768 614.268C187.174 614.443 188.175 615.705 189.236 616.097C190.963 616.736 192.298 617.031 194.068 616.494C195.567 616.038 196.785 614.471 198.466 614.629C198.232 615.635 197.996 616.641 197.761 617.646C199.472 616.99 200.27 617.586 201.841 617.281C201.537 617.34 205.128 616.513 204.767 616.417C205.016 616.483 205.942 618.18 206.833 618.603C210.513 620.348 215.004 619.048 218.893 619.342C222.884 619.643 226.802 620.23 230.824 620.52C233.784 620.732 247.695 622.527 248 617.455C246.92 617.204 245.849 617.236 244.786 617.55Z" fill="black"/>
<path fill-rule="evenodd" clip-rule="evenodd" d="M619.763 151.434C620.913 141.599 617.643 133.389 615.1 124.147C613.014 116.574 610.43 109.03 605.149 102.956C600.353 97.439 593.094 90.387 585.319 90.0128C579.275 89.722 575.146 94.4546 580.419 98.8355C585.679 103.205 590.459 106.03 594.621 111.73C599.414 118.296 603.027 125.708 605.708 133.361C610.593 147.303 613.365 163.744 608.746 178.066C608.288 179.486 606.481 183.547 608.29 184.688C610.362 185.993 611.962 182.869 612.531 181.532C613.061 180.285 615.434 168.486 617.542 170.061C617.409 168.437 616.71 167.677 616.809 166.073C616.868 165.145 617.667 163.827 617.74 162.626C617.98 158.689 619.311 155.296 619.763 151.434Z" fill="black"/>
<path fill-rule="evenodd" clip-rule="evenodd" d="M256.238 100C262.582 100.137 262.801 85.9007 264.777 82.0386C265.705 80.2256 266.669 78.044 267.696 76.3532C268.494 75.0413 269.47 74.8435 270.055 73.8012C272.005 70.3403 270.649 67.5895 269.775 64.2434C272.079 63.873 272.861 63.8823 273.689 61.5785C273.934 60.8982 273.349 59.6637 273.834 59.1515C274.501 58.447 275.629 58.8286 276.308 58.237C276.485 58.0821 276.418 56.5976 276.633 56.0405C277.118 54.7817 277.505 54.2993 278.439 53.3373C279.695 52.0412 283.114 51.3367 281.981 49.0693C282.826 49.0338 283.631 48.8369 284.397 48.4786C284.643 47.3468 282.34 47.7769 282.527 47.1265C282.925 45.7465 285.09 43.9307 286.461 43.6489C285.291 43.0396 284.122 42.4293 282.953 41.8191C285.891 41.2004 285.809 39.4555 288.8 41.4365C288.472 38.6717 292.242 36.1346 293.876 34.3542C296.948 31.0081 300.386 28.1696 303.783 25.1576C306.736 22.5393 309.467 19.7474 312.224 16.9304C313.633 15.4887 315.067 14.0686 316.687 12.863C318.342 11.6313 319.635 11.873 321.157 11.0313C323.587 9.68763 325.058 6.96204 327.501 5.59224C328.601 4.97453 329.072 5.67342 329.873 4.89988C330.621 4.17672 331.299 1.79264 330.863 0.869802C329.031 -3.01378 315.785 7.28769 313.706 8.62669C288.45 24.8982 268.117 47.3262 257.054 75.4677C255.551 79.2916 246.982 99.7965 256.238 100Z" fill="black"/>
<path fill-rule="evenodd" clip-rule="evenodd" d="M249 620C250.722 619.625 252.453 619.247 255 618.693C250.448 616.197 250.075 616.323 249 620Z" fill="black"/>
<path fill-rule="evenodd" clip-rule="evenodd" d="M338.227 169.982C341.614 169.661 349.004 166.165 347.886 161.398C346.855 156.998 342.863 161.739 340.132 161.243C337.214 160.714 335.86 154.481 333.408 160.838C332.091 164.252 334.033 170.379 338.227 169.982Z" fill="black"/>
</svg>
