<svg xmlns="http://www.w3.org/2000/svg" width="148.569" height="135.142" viewBox="0 0 148.569 135.142"><defs><style>.a{fill:#789174;}.b{fill:#476040;}.c{fill:#d2dac3;}</style></defs><g transform="translate(0 -23.046)"><g transform="translate(0 23.046)"><path class="a" d="M139.269,23.046H9.3a9.3,9.3,0,0,0-9.3,9.3V101.2a9.3,9.3,0,0,0,9.3,9.3,7.273,7.273,0,0,1,7.273,7.273v.972a8.245,8.245,0,0,0,14.075,5.83l11.66-11.66a8.245,8.245,0,0,1,5.83-2.415h91.132a9.3,9.3,0,0,0,9.3-9.3V32.345a9.3,9.3,0,0,0-9.3-9.3Z" transform="translate(0 -23.046)"/><path class="b" d="M449,23.046H437.052a9.3,9.3,0,0,1,9.3,9.3V101.2a9.3,9.3,0,0,1-9.3,9.3H449a9.3,9.3,0,0,0,9.3-9.3V32.345a9.3,9.3,0,0,0-9.3-9.3Z" transform="translate(-309.734 -23.046)"/><g transform="translate(8.999 22.585)"><g transform="translate(0 0)"><path class="c" d="M54.942,103.312l3.408,6.906,7.621,1.107a4.912,4.912,0,0,1,2.723,8.379l-5.515,5.375,1.3,7.59a4.912,4.912,0,0,1-7.128,5.178l-6.816-3.583-6.816,3.583a4.912,4.912,0,0,1-7.128-5.178l1.3-7.59L32.38,119.7a4.912,4.912,0,0,1,2.723-8.379l7.621-1.107,3.408-6.906a4.912,4.912,0,0,1,8.81,0Z" transform="translate(-30.891 -100.573)"/><path class="c" d="M79.659,135.843l-4.629-.673v.006a19.657,19.657,0,0,1-24.249,19.1l-.5,2.91a4.912,4.912,0,0,0,7.128,5.178l6.816-3.583,6.816,3.583a4.912,4.912,0,0,0,7.128-5.178l-1.3-7.59,5.515-5.375A4.912,4.912,0,0,0,79.659,135.843Z" transform="translate(-44.58 -125.092)"/></g><g transform="translate(45.64)"><path class="c" d="M211.613,103.311l3.408,6.906,7.621,1.107a4.912,4.912,0,0,1,2.723,8.379l-5.515,5.375,1.3,7.59a4.912,4.912,0,0,1-7.128,5.178l-6.816-3.584-6.816,3.583a4.912,4.912,0,0,1-7.128-5.178l1.3-7.59-5.515-5.375a4.912,4.912,0,0,1,2.723-8.379l7.621-1.107,3.408-6.906A4.912,4.912,0,0,1,211.613,103.311Z" transform="translate(-187.563 -100.573)"/><path class="c" d="M236.331,135.843l-4.629-.673v.006a19.657,19.657,0,0,1-24.249,19.1l-.5,2.91a4.912,4.912,0,0,0,7.128,5.178l6.816-3.583,6.816,3.583a4.912,4.912,0,0,0,7.128-5.178l-1.3-7.59,5.515-5.375A4.912,4.912,0,0,0,236.331,135.843Z" transform="translate(-201.252 -125.092)"/></g><g transform="translate(91.281 0)"><path class="c" d="M368.285,103.312l3.408,6.906,7.621,1.107a4.912,4.912,0,0,1,2.723,8.379l-5.515,5.375,1.3,7.59a4.912,4.912,0,0,1-7.128,5.178l-6.816-3.583-6.816,3.583a4.912,4.912,0,0,1-7.128-5.178l1.3-7.59-5.515-5.375a4.912,4.912,0,0,1,2.723-8.379l7.621-1.107,3.408-6.906A4.912,4.912,0,0,1,368.285,103.312Z" transform="translate(-344.235 -100.573)"/><path class="c" d="M393,135.843l-4.629-.673v.006a19.657,19.657,0,0,1-24.249,19.1l-.5,2.91a4.912,4.912,0,0,0,7.128,5.178l6.816-3.583,6.816,3.583a4.912,4.912,0,0,0,7.128-5.178l-1.3-7.59,5.515-5.375A4.912,4.912,0,0,0,393,135.843Z" transform="translate(-357.923 -125.092)"/></g></g></g><g transform="translate(51.504 92.06)"><path class="c" d="M215.836,259.954h60.535a8.142,8.142,0,0,1,8.142,8.142v35.394a8.142,8.142,0,0,1-8.142,8.142A6.367,6.367,0,0,0,270,318v.851a7.218,7.218,0,0,1-12.322,5.1l-10.208-10.208a7.218,7.218,0,0,0-5.1-2.114H215.836a8.142,8.142,0,0,1-8.142-8.142V268.1A8.142,8.142,0,0,1,215.836,259.954Z" transform="translate(-207.694 -259.954)"/><path class="b" d="M396.116,259.954H384.458A8.142,8.142,0,0,1,392.6,268.1v35.394a8.142,8.142,0,0,1-8.142,8.142A6.367,6.367,0,0,0,378.09,318v.851a7.1,7.1,0,0,1-1.429,4.339l.766.766a7.218,7.218,0,0,0,12.322-5.1V318a6.367,6.367,0,0,1,6.367-6.367,8.142,8.142,0,0,0,8.142-8.142V268.1A8.142,8.142,0,0,0,396.116,259.954Z" transform="translate(-327.439 -259.954)"/></g></g></svg>