<svg xmlns="http://www.w3.org/2000/svg" width="102.824" height="134.987" viewBox="0 0 102.824 134.987"><defs><style>.a{fill:#476040;}.b{fill:#789174;}</style></defs><g transform="translate(-60.997)"><g transform="translate(60.997)"><path class="a" d="M112.409,0C84.01,0,61,23.32,61,51.675A51.28,51.28,0,0,0,77.5,89.383L82.88,96.9a51.3,51.3,0,0,0,59.585-.376l4.851-7.14A51.57,51.57,0,0,0,112.409,0Z" transform="translate(-60.997)"/></g><g transform="translate(64.338 15.819)"><path class="b" d="M169.4,159.309l-12.753-25.745a51.31,51.31,0,0,1-69.814,0L74.079,159.309a3.955,3.955,0,0,0,3.9,5.694l16.085-1.449,8.495,13.739a3.954,3.954,0,0,0,3.363,1.875c.061,0,.123,0,.185,0a3.954,3.954,0,0,0,3.358-2.194l12.27-24.745c3.631,7.339,9.173,18.531,12.286,24.756a3.955,3.955,0,0,0,6.9.311l8.495-13.739L165.5,165a3.955,3.955,0,0,0,3.9-5.694Zm-47.66-27.86A35.725,35.725,0,1,0,86.146,95.856,35.633,35.633,0,0,0,121.739,131.449ZM103.124,93.06a3.955,3.955,0,0,1,5.593,0l9.068,9.068L134.762,85.15a3.955,3.955,0,0,1,5.593,5.593l-19.774,19.774a3.955,3.955,0,0,1-5.593,0L103.124,98.653A3.954,3.954,0,0,1,103.124,93.06Z" transform="translate(-73.668 -60)"/></g></g></svg>